# AST/ASF file generated using VICON BodyLanguage
# -----------------------------------------------
:version 1.10
:name VICON
:units
  mass 1.0
  length 0.45
  angle deg
:documentation
   .ast/.asf automatically generated from VICON data using
   VICON BodyBuilder and BodyLanguage model FoxedUp or BRILLIANT.MOD
:root
   order TX TY TZ RX RY RZ
   axis XYZ
   position 0 0 0  
   orientation 0 0 0 
:bonedata
  begin
     id 1 
     name lhipjoint
     direction 0.627457 -0.725269 0.283342 
     length 2.53237 
     axis 0 0 0  XYZ
  end
  begin
     id 2 
     name lfemur
     direction 0.34202 -0.939693 0  
     length 7.32496  
     axis 0 0 20  XYZ
    dof rx ry rz
    limits (-160.0 20.0)
           (-70.0 70.0)
           (-60.0 70.0)
  end
  begin
     id 3 
     name ltibia
     direction 0.34202 -0.939693 0   
     length 7.69674   
     axis 0 0 20   XYZ
    dof rx
    limits (-10.0 170.0)
  end
  begin
     id 4 
     name lfoot
     direction 0.127289 -0.349722 0.928166   
     length 1.8612   
     axis -90 7.62852e-016 20   XYZ
    dof rx rz
    limits (-45.0 90.0)
           (-70.0 20.0)
  end
  begin
     id 5 
     name ltoes
     direction 1.53561e-011 -4.21864e-011 1   
     length 0.925608   
     axis -90 7.62852e-016 20   XYZ
    dof rx
    limits (-90.0 20.0)
  end
  begin
     id 6 
     name rhipjoint
     direction -0.609094 -0.738725 0.288599   
     length 2.48624  
     axis 0 0 0  XYZ 
  end
  begin
     id 7 
     name rfemur
     direction -0.34202 -0.939693 0   
     length 7.44259   
     axis 0 0 -20   XYZ
    dof rx ry rz
    limits (-160.0 20.0)
           (-70.0 70.0)
           (-70.0 60.0)
  end
  begin
     id 8 
     name rtibia
     direction -0.34202 -0.939693 0   
     length 7.7781   
     axis 0 0 -20   XYZ
    dof rx
    limits (-10.0 170.0)
 end
 begin
     id 9 
     name rfoot
     direction -0.107015 -0.294021 0.949789   
     length 2.14741  
     axis -90 -7.62852e-016 -20   XYZ
    dof rx rz
    limits (-45.0 90.0)
           (-20.0 70.0)
  end
  begin
     id 10 
     name rtoes
     direction -1.53497e-011 -4.21924e-011 1   
     length 1.0706   
     axis -90 -7.62852e-016 -20   XYZ
    dof rx
    limits (-90.0 20.0)
  end
  begin
     id 11 
     name lowerback
     direction -0.0142066 0.998112 -0.0597545   
     length 1.86627   
     axis 0 0 0   XYZ
    dof rx ry rz
    limits (-20.0 45.0)
           (-30.0 30.0)
           (-30.0 30.0)
  end
  begin
     id 12 
     name upperback
     direction 0.00547294 0.999744 0.0219437   
     length 1.86272   
     axis 0 0 0   XYZ
    dof rx ry rz
    limits (-20.0 45.0)
           (-30.0 30.0)
           (-30.0 30.0)
  end
  begin
     id 13 
     name thorax
     direction 0.0116162 0.998704 0.0495538   
     length 1.8703   
     axis 0 0 0   XYZ
    dof rx ry rz
    limits (-20.0 45.0)
           (-30.0 30.0)
           (-30.0 30.0)
  end
  begin
     id 14 
     name lowerneck
     direction -0.0106574 0.998739 0.0490586   
     length 1.8074   
     axis 0 0 0   XYZ
    dof rx ry rz
    limits (-20.0 45.0)
           (-30.0 30.0)
           (-30.0 30.0)
  end
  begin
     id 15 
     name upperneck
     direction 0.030527 0.976587 -0.212944   
     length 1.80681   
     axis 0 0 0   XYZ
    dof rx ry rz
    limits (-20.0 45.0)
           (-30.0 30.0)
           (-30.0 30.0)
  end
  begin
     id 16
     name head
     direction 0.00869225 0.997035 -0.0764531  
     length 1.8313  
     axis 0 0 0   XYZ
    dof rx ry rz
    limits (-20.0 45.0)
           (-30.0 30.0)
           (-30.0 30.0)
  end
  begin
     id 17 
     name lclavicle
     direction 0.915958 0.399447 0.0382386  
     length 3.78965  
     axis 0 0 0   XYZ
    dof ry rz
    limits (-20.0 10.0)
           (0.0 20.0)
  end
  begin
     id 18 
     name lhumerus
     direction 1 -4.48967e-011 3.19303e-027   
     length 4.78095   
     axis -180 -30 -90   XYZ
    dof rx ry rz
    limits (-60.0 90.0)
           (-90.0 90.0)
           (-90.0 90.0)
  end
  begin
     id 19
     name lradius
     direction 1 -4.48967e-011 -3.77974e-027   
     length 3.58615   
     axis -180 -30 -90   XYZ
    dof rx
    limits (-10.0 170.0)
  end
  begin
     id 20
     name lwrist
     direction 1 -4.48927e-011 1.2807e-027   
     length 1.79307   
     axis 1.91374e-015 90 90   XYZ
    dof ry
    limits (-180.0 0.0)
 end
  begin
     id 21 
     name lhand
     direction 1 -4.49036e-011 2.5614e-027   
     length 0.659812   
     axis -1.63439e-015 90 90   XYZ
    dof rx rz
    limits (-90.0 90.0)
           (-45.0 45.0)
  end
  begin
     id 22 
     name lfingers
     direction 1 -4.49052e-011 5.1228e-027   
     length 0.531957   
     axis -3.26879e-015 90 90   XYZ
    dof rx
    limits (0.0 90.0)
  end
  begin
     id 23
     name lthumb
     direction 0.707107 -6.35012e-011 0.707107   
     length 0.763787   
     axis -90 45 2.85299e-015   XYZ
    dof rx rz
    limits (-45.0 45.0)
           (-45.0 45.0)
  end
  begin
     id 24 
     name rclavicle
     direction -0.895351 0.435135 0.0948887   
     length 3.70497  
     axis 0 0 0   XYZ 
    dof ry rz
    limits (-10.0 20.0)
           (-20.0 0.0)
  end
  begin
     id 25 
     name rhumerus
     direction -1 -4.48971e-011 2.38946e-027  
     length 4.48913   
     axis -180 30 90   XYZ
    dof rx ry rz
    limits (-90.0 60.0)
           (-90.0 90.0)
           (-90.0 90.0)
  end
  begin
     id 26 
     name rradius
     direction -1 -4.4895e-011 4.38668e-027   
     length 3.7051   
     axis -180 30 90   XYZ
    dof rx
    limits (-10.0 170.0)
  end
  begin
     id 27 
     name rwrist
     direction -1 -4.49007e-011 1.2807e-027   
     length 1.85255   
     axis 1.91374e-015 -90 -90   XYZ
    dof ry
    limits (-180.0 0.0)
  end
  begin
     id 28
     name rhand
     direction -1 -4.48851e-011 2.5614e-027   
     length 0.449136   
     axis -1.63439e-015 -90 -90   XYZ
    dof rx rz
    limits (-90.0 90.0)
           (-45.0 45.0)
  end
  begin
     id 29
     name rfingers
     direction -1 -4.49128e-011 5.1228e-027   
     length 0.362105   
     axis -3.26879e-015 -90 -90   XYZ
    dof rx
    limits (0.0 90.0)
  end
  begin
     id 30
     name rthumb
     direction -0.707107 -6.34851e-011 0.707107   
     length 0.519912   
     axis -90 -45 -2.85299e-015   XYZ
    dof rx rz
    limits (-45.0 45.0)
           (-45.0 45.0)
  end
:hierarchy
  begin
    root lhipjoint rhipjoint lowerback
    lhipjoint lfemur
    lfemur ltibia
    ltibia lfoot
    lfoot ltoes
    rhipjoint rfemur
    rfemur rtibia
    rtibia rfoot
    rfoot rtoes
    lowerback upperback
    upperback thorax
    thorax lowerneck lclavicle rclavicle
    lowerneck upperneck
    upperneck head
    lclavicle lhumerus
    lhumerus lradius
    lradius lwrist
    lwrist lhand lthumb
    lhand lfingers
    rclavicle rhumerus
    rhumerus rradius
    rradius rwrist
    rwrist rhand rthumb
    rhand rfingers
  end

#!OML:ASF I:\Actors\actors\Patient Classification 2\Patient 1\Session 1\actor1.ASF
:FULLY-SPECIFIED
:DEGREES
58
root -0.710923 18.57 6.54011 -1.6764 -3.1385 -2.4935
lowerback 4.54665 0.989301 0.401347
upperback 0.379839 1.35399 0.681342
thorax -2.16504 0.674307 0.388599
lowerneck -9.97837 -1.67559 -2.75069
upperneck 16.8091 -1.99417 0.9587
head 6.80996 -1.05316 0.588188
rclavicle -1.1514e-014 -9.93923e-016
rhumerus -45.6362 -1.67924 -87.7021
rradius 41.8897
rwrist 15.5314
rhand -6.23578 -29.4317
rfingers 7.12502
rthumb 19.6057 -58.4632
lclavicle -1.1514e-014 -9.93923e-016
lhumerus -38.6783 -2.52379 93.7942
lradius 35.6645
lwrist -9.45602
lhand -4.33334 -24.1978
lfingers 7.12502
lthumb 21.4338 4.63656
rfemur 12.8602 -6.28388 14.7909
rtibia 9.54166e-015
rfoot -13.0086 -4.21142
rtoes -9.28401
lfemur -0.395443 -6.7266 -13.243
ltibia 24.1017
lfoot -23.7334 11.0025
ltoes -56.3847
59
root -0.712168 18.5696 6.54318 -1.6781 -3.15291 -2.53507
lowerback 4.51921 0.996665 0.430911
upperback 0.397937 1.36513 0.691798
thorax -2.13069 0.679691 0.382777
lowerneck -9.9918 -1.61863 -2.53881
upperneck 16.8001 -1.9118 0.733921
head 6.80342 -1.01912 0.488156
rclavicle -6.74315e-015 -5.76476e-015
rhumerus -45.5788 -1.73018 -87.7026
rradius 41.8647
rwrist 15.5629
rhand -6.97209 -29.1223
rfingers 7.12502
rthumb 18.8977 -58.2243
lclavicle -6.74315e-015 -5.76476e-015
lhumerus -38.6094 -2.48552 93.7513
lradius 35.588
lwrist -9.46809
lhand -4.43572 -24.1412
lfingers 7.12502
lthumb 21.3355 4.70431
rfemur 12.8738 -6.27167 14.8447
rtibia 9.54166e-015
rfoot -13.0053 -4.23144
rtoes -9.68126
lfemur -0.387758 -6.71971 -13.1977
ltibia 24.1236
lfoot -23.7133 11.0791
ltoes -56.4681
60
root -0.713152 18.5696 6.54541 -1.66776 -3.16894 -2.59399
lowerback 4.48527 1.00571 0.484929
upperback 0.417222 1.37969 0.70541
thorax -2.091 0.6866 0.366432
lowerneck -10.012 -1.62445 -2.57189
upperneck 16.7815 -1.92361 0.790957
head 6.80207 -1.0219 0.510795
rclavicle -5.23984e-015 -9.93923e-016
rhumerus -45.5317 -1.74638 -87.7068
rradius 41.8692
rwrist 15.5711
rhand -7.63739 -28.9356
rfingers 7.12502
rthumb 18.2577 -58.0988
lclavicle -5.23984e-015 -9.93923e-016
lhumerus -38.5373 -2.41682 93.6955
lradius 35.4927
lwrist -9.54861
lhand -4.55682 -24.3594
lfingers 7.12502
lthumb 21.2192 4.49919
rfemur 12.8709 -6.25948 14.9175
rtibia -2.54444e-014
rfoot -13.0155 -4.23911
rtoes -9.80181
lfemur -0.389474 -6.75807 -13.1352
ltibia 24.1446
lfoot -23.7989 11.0994
ltoes -56.4098
61
root -0.715443 18.5689 6.54687 -1.66434 -3.16186 -2.61652
lowerback 4.47086 1.00396 0.472446
upperback 0.427376 1.37675 0.716421
thorax -2.07305 0.68532 0.385295
lowerneck -10.0004 -1.68687 -2.73521
upperneck 16.7432 -2.01375 0.972915
head 6.79298 -1.06005 0.588422
rclavicle -9.01675e-015 0
rhumerus -45.5044 -1.71402 -87.7401
rradius 41.8757
rwrist 15.5414
rhand -7.58074 -29.007
rfingers 7.12502
rthumb 18.3122 -58.1651
lclavicle -9.01675e-015 0
lhumerus -38.5406 -2.36711 93.6395
lradius 35.4687
lwrist -9.63806
lhand -4.60818 -24.5609
lfingers 7.12502
lthumb 21.1698 4.30319
rfemur 12.8774 -6.26819 14.9479
rtibia -4.77083e-015
rfoot -13.0295 -4.22083
rtoes -9.699
lfemur -0.394781 -6.77208 -13.1004
ltibia 24.1637
lfoot -23.831 11.0244
ltoes -56.2759
62
root -0.717852 18.5686 6.54871 -1.65582 -3.13576 -2.60536
lowerback 4.44921 0.991932 0.413006
upperback 0.437518 1.35768 0.724522
thorax -2.05202 0.676388 0.428602
lowerneck -9.94753 -1.70604 -2.77267
upperneck 16.6433 -2.04346 1.02272
head 6.75309 -1.07234 0.608586
rclavicle -2.51618e-014 8.74653e-015
rhumerus -45.4754 -1.66702 -87.7729
rradius 41.8576
rwrist 15.5343
rhand -7.59779 -28.9808
rfingers 7.12502
rthumb 18.2958 -58.1403
lclavicle -2.51618e-014 8.74653e-015
lhumerus -38.5525 -2.31073 93.5857
lradius 35.5046
lwrist -9.71889
lhand -4.93975 -24.5832
lfingers 7.12502
lthumb 20.8513 4.31626
rfemur 12.8821 -6.29469 14.9384
rtibia 5.88403e-014
rfoot -13.0464 -4.1985
rtoes -9.52074
lfemur -0.415644 -6.72641 -13.0923
ltibia 24.1751
lfoot -23.765 10.9406
ltoes -56.2069
